<mxfile host="app.diagrams.net" modified="2023-06-16T15:55:04.372Z" agent="Mozilla/5.0 (Macintosh; Intel Mac OS X 10_15_7) AppleWebKit/537.36 (KHTML, like Gecko) Chrome/114.0.0.0 Safari/537.36" etag="VG4sqBGTSpvPrGDsUQeR" version="21.3.8" type="device">
  <diagram id="2f404044-711c-603c-8f00-f6bb4c023d3c" name="Page-1">
    <mxGraphModel dx="2033" dy="1162" grid="1" gridSize="10" guides="1" tooltips="1" connect="1" arrows="1" fold="1" page="1" pageScale="1" pageWidth="1169" pageHeight="827" background="none" math="0" shadow="0">
      <root>
        <mxCell id="0" />
        <mxCell id="1" parent="0" />
        <mxCell id="21" value="z" style="swimlane;shadow=0;strokeColor=#000000;fillColor=#ffffff;fontColor=none;align=right;startSize=0;collapsible=0;noLabel=1;strokeWidth=3;" parent="1" vertex="1">
          <mxGeometry x="-870" y="170" width="1380" height="780" as="geometry" />
        </mxCell>
        <mxCell id="47" value="" style="line;strokeWidth=3;direction=south;html=1;shadow=0;labelBackgroundColor=none;fillColor=none;gradientColor=none;fontSize=12;fontColor=#4277BB;align=right;strokeColor=#000000;" parent="21" vertex="1">
          <mxGeometry x="1004.36" width="10" height="780" as="geometry" />
        </mxCell>
        <mxCell id="43" value="" style="line;strokeWidth=3;direction=south;html=1;shadow=0;labelBackgroundColor=none;fillColor=none;gradientColor=none;fontSize=12;fontColor=#4277BB;align=right;strokeColor=#000000;" parent="21" vertex="1">
          <mxGeometry x="207" width="10" height="780" as="geometry" />
        </mxCell>
        <mxCell id="22" value="&lt;font color=&quot;#000000&quot;&gt;Front End Applications&lt;/font&gt;" style="text;html=1;align=left;verticalAlign=middle;fontColor=#4277BB;shadow=0;dashed=0;strokeColor=none;fillColor=none;labelBackgroundColor=none;fontStyle=1;fontSize=14;spacingLeft=5;" parent="21" vertex="1">
          <mxGeometry y="10" width="180" height="20" as="geometry" />
        </mxCell>
        <mxCell id="48" value="&lt;font color=&quot;#8860d0&quot;&gt;MoCab Server&lt;/font&gt;" style="text;html=1;align=left;verticalAlign=middle;fontColor=#4277BB;shadow=0;dashed=0;strokeColor=none;fillColor=none;labelBackgroundColor=none;fontStyle=1;fontSize=14;spacingLeft=5;" parent="21" vertex="1">
          <mxGeometry x="220" y="10" width="150" height="20" as="geometry" />
        </mxCell>
        <mxCell id="XKVZl34SWuccuq--4w8E-62" value="&lt;font color=&quot;#000000&quot;&gt;External FHIR Server&lt;/font&gt;" style="text;html=1;align=left;verticalAlign=middle;fontColor=#4277BB;shadow=0;dashed=0;strokeColor=none;fillColor=none;labelBackgroundColor=none;fontStyle=1;fontSize=14;spacingLeft=5;" parent="21" vertex="1">
          <mxGeometry x="1017.36" y="10" width="150" height="20" as="geometry" />
        </mxCell>
        <mxCell id="hQCJ3XEMx7iAnxMMSpY4-54" value="&lt;font style=&quot;font-size: 14px;&quot;&gt;&lt;b style=&quot;&quot;&gt;EMR Client&lt;/b&gt;&lt;/font&gt;" style="sketch=0;pointerEvents=1;shadow=0;dashed=0;html=1;strokeColor=none;fillColor=#000000;aspect=fixed;labelPosition=center;verticalLabelPosition=bottom;verticalAlign=top;align=center;outlineConnect=0;shape=mxgraph.vvd.web_browser;" parent="21" vertex="1">
          <mxGeometry x="50" y="103.9" width="80.42" height="57.1" as="geometry" />
        </mxCell>
        <mxCell id="hQCJ3XEMx7iAnxMMSpY4-67" value="&lt;font style=&quot;font-size: 14px;&quot;&gt;&lt;b style=&quot;&quot;&gt;SMART APPs&lt;br&gt;&lt;font color=&quot;#8860d0&quot;&gt;MoCab SMART App&lt;/font&gt;&lt;br&gt;&lt;/b&gt;&lt;/font&gt;" style="sketch=0;pointerEvents=1;shadow=0;dashed=0;html=1;strokeColor=none;fillColor=#000000;aspect=fixed;labelPosition=center;verticalLabelPosition=bottom;verticalAlign=top;align=center;outlineConnect=0;shape=mxgraph.vvd.web_browser;" parent="21" vertex="1">
          <mxGeometry x="50" y="301.9" width="80.42" height="57.1" as="geometry" />
        </mxCell>
        <mxCell id="hQCJ3XEMx7iAnxMMSpY4-80" value="" style="rounded=0;whiteSpace=wrap;html=1;fontColor=#FF9933;strokeColor=#8860D0;strokeWidth=3;fillColor=none;" parent="21" vertex="1">
          <mxGeometry x="574" y="251" width="324" height="230" as="geometry" />
        </mxCell>
        <mxCell id="hQCJ3XEMx7iAnxMMSpY4-83" value="" style="group" parent="21" vertex="1" connectable="0">
          <mxGeometry x="575" y="291" width="320" height="190" as="geometry" />
        </mxCell>
        <mxCell id="hQCJ3XEMx7iAnxMMSpY4-146" style="edgeStyle=orthogonalEdgeStyle;rounded=0;orthogonalLoop=1;jettySize=auto;html=1;entryX=0;entryY=0.5;entryDx=0;entryDy=0;entryPerimeter=0;fontSize=13;fontColor=#000000;startArrow=classic;startFill=1;strokeWidth=2;strokeColor=#8860D0;" parent="hQCJ3XEMx7iAnxMMSpY4-83" source="hQCJ3XEMx7iAnxMMSpY4-119" target="hQCJ3XEMx7iAnxMMSpY4-120" edge="1">
          <mxGeometry relative="1" as="geometry" />
        </mxCell>
        <mxCell id="hQCJ3XEMx7iAnxMMSpY4-119" value="&lt;b&gt;&lt;font color=&quot;#8860d0&quot;&gt;Prediction Adapter&lt;/font&gt;&lt;/b&gt;" style="rounded=0;whiteSpace=wrap;html=1;fontSize=14;fontColor=#FF9933;strokeColor=#8860D0;strokeWidth=3;fillColor=none;" parent="hQCJ3XEMx7iAnxMMSpY4-83" vertex="1">
          <mxGeometry x="28" y="11" width="82" height="122" as="geometry" />
        </mxCell>
        <mxCell id="hQCJ3XEMx7iAnxMMSpY4-132" value="&lt;b&gt;&lt;font style=&quot;font-size: 14px;&quot;&gt;&lt;font color=&quot;#8860d0&quot;&gt;Model Cabinet&lt;br&gt;(Model Warehouse)&lt;/font&gt;&lt;br&gt;&lt;/font&gt;&lt;/b&gt;" style="text;html=1;strokeColor=none;fillColor=none;align=center;verticalAlign=middle;whiteSpace=wrap;rounded=0;fontSize=11;fontColor=#FF6666;" parent="hQCJ3XEMx7iAnxMMSpY4-83" vertex="1">
          <mxGeometry x="158" y="154" width="145" height="30" as="geometry" />
        </mxCell>
        <mxCell id="hQCJ3XEMx7iAnxMMSpY4-136" value="" style="group" parent="hQCJ3XEMx7iAnxMMSpY4-83" vertex="1" connectable="0">
          <mxGeometry x="165" y="-3" width="125" height="151" as="geometry" />
        </mxCell>
        <mxCell id="hQCJ3XEMx7iAnxMMSpY4-120" value="" style="shape=cylinder3;whiteSpace=wrap;html=1;boundedLbl=1;backgroundOutline=1;size=15;fontColor=#FF9933;strokeColor=#8860D0;strokeWidth=3;fillColor=none;" parent="hQCJ3XEMx7iAnxMMSpY4-136" vertex="1">
          <mxGeometry width="125" height="151" as="geometry" />
        </mxCell>
        <mxCell id="hQCJ3XEMx7iAnxMMSpY4-128" value="&lt;b&gt;&lt;font color=&quot;#8860d0&quot; style=&quot;font-size: 12px;&quot;&gt;Diabetes&lt;/font&gt;&lt;/b&gt;" style="rounded=1;whiteSpace=wrap;html=1;fontSize=14;fontColor=#FF9933;strokeColor=#8860D0;strokeWidth=3;fillColor=none;" parent="hQCJ3XEMx7iAnxMMSpY4-136" vertex="1">
          <mxGeometry x="11.25" y="40" width="105" height="20" as="geometry" />
        </mxCell>
        <mxCell id="hQCJ3XEMx7iAnxMMSpY4-129" value="&lt;b&gt;&lt;font color=&quot;#8860d0&quot; style=&quot;font-size: 12px;&quot;&gt;qCSI&lt;/font&gt;&lt;/b&gt;" style="rounded=1;whiteSpace=wrap;html=1;fontSize=14;fontColor=#FF9933;strokeColor=#8860D0;strokeWidth=3;fillColor=none;" parent="hQCJ3XEMx7iAnxMMSpY4-136" vertex="1">
          <mxGeometry x="11.25" y="70" width="105" height="20" as="geometry" />
        </mxCell>
        <mxCell id="hQCJ3XEMx7iAnxMMSpY4-130" value="&lt;font color=&quot;#8860d0&quot; style=&quot;font-size: 12px;&quot;&gt;&lt;b style=&quot;&quot;&gt;Other prediction&lt;br&gt;models&lt;/b&gt;&lt;/font&gt;" style="rounded=1;whiteSpace=wrap;html=1;fontSize=14;fontColor=#FF9933;strokeColor=#8860D0;strokeWidth=3;fillColor=none;" parent="hQCJ3XEMx7iAnxMMSpY4-136" vertex="1">
          <mxGeometry x="11.25" y="101" width="105" height="39" as="geometry" />
        </mxCell>
        <mxCell id="hQCJ3XEMx7iAnxMMSpY4-81" value="&lt;font color=&quot;#8860d0&quot;&gt;Knowledge Model Center&lt;/font&gt;" style="text;html=1;align=left;verticalAlign=middle;fontColor=#4277BB;shadow=0;dashed=0;strokeColor=none;fillColor=none;labelBackgroundColor=none;fontStyle=1;fontSize=14;spacingLeft=5;" parent="21" vertex="1">
          <mxGeometry x="576" y="253" width="185" height="20" as="geometry" />
        </mxCell>
        <mxCell id="hQCJ3XEMx7iAnxMMSpY4-84" value="" style="group;strokeColor=none;fillColor=none;" parent="21" vertex="1" connectable="0">
          <mxGeometry x="574" y="40" width="325" height="150" as="geometry" />
        </mxCell>
        <mxCell id="hQCJ3XEMx7iAnxMMSpY4-76" value="" style="rounded=0;whiteSpace=wrap;html=1;fontColor=#FF9933;strokeColor=#8860D0;strokeWidth=3;fillColor=none;" parent="hQCJ3XEMx7iAnxMMSpY4-84" vertex="1">
          <mxGeometry x="1.0124610591900312" width="324" height="150" as="geometry" />
        </mxCell>
        <mxCell id="hQCJ3XEMx7iAnxMMSpY4-77" value="&lt;font color=&quot;#8860d0&quot;&gt;Data Service Center&lt;/font&gt;" style="text;html=1;align=left;verticalAlign=middle;fontColor=#4277BB;shadow=0;dashed=0;strokeColor=none;fillColor=none;labelBackgroundColor=none;fontStyle=1;fontSize=14;spacingLeft=5;" parent="hQCJ3XEMx7iAnxMMSpY4-84" vertex="1">
          <mxGeometry y="2.142857142857143" width="121.49532710280374" height="21.428571428571427" as="geometry" />
        </mxCell>
        <mxCell id="hQCJ3XEMx7iAnxMMSpY4-86" value="&lt;b&gt;&lt;font color=&quot;#8860d0&quot;&gt;Data Preprocessing Service&lt;/font&gt;&lt;/b&gt;" style="rounded=0;whiteSpace=wrap;html=1;fontSize=14;fontColor=#FF9933;strokeColor=#8860D0;strokeWidth=3;fillColor=none;" parent="hQCJ3XEMx7iAnxMMSpY4-84" vertex="1">
          <mxGeometry x="20.32398753894081" y="93.07142857142857" width="287.53894080996884" height="48.214285714285715" as="geometry" />
        </mxCell>
        <mxCell id="hQCJ3XEMx7iAnxMMSpY4-144" style="edgeStyle=orthogonalEdgeStyle;rounded=0;orthogonalLoop=1;jettySize=auto;html=1;exitX=0.5;exitY=1;exitDx=0;exitDy=0;entryX=0.5;entryY=0;entryDx=0;entryDy=0;fontSize=13;fontColor=#000000;startArrow=none;startFill=0;strokeWidth=2;strokeColor=#E89B00;" parent="hQCJ3XEMx7iAnxMMSpY4-84" source="hQCJ3XEMx7iAnxMMSpY4-118" target="hQCJ3XEMx7iAnxMMSpY4-86" edge="1">
          <mxGeometry relative="1" as="geometry" />
        </mxCell>
        <mxCell id="W-3xFo2ouSSGhJE2ZV1L-51" style="edgeStyle=orthogonalEdgeStyle;rounded=0;orthogonalLoop=1;jettySize=auto;html=1;strokeColor=#000000;strokeWidth=2;" parent="hQCJ3XEMx7iAnxMMSpY4-84" source="hQCJ3XEMx7iAnxMMSpY4-118" target="hQCJ3XEMx7iAnxMMSpY4-86" edge="1">
          <mxGeometry relative="1" as="geometry">
            <Array as="points">
              <mxPoint x="186" y="90" />
              <mxPoint x="186" y="90" />
            </Array>
          </mxGeometry>
        </mxCell>
        <mxCell id="hQCJ3XEMx7iAnxMMSpY4-118" value="&lt;b&gt;&lt;font color=&quot;#8860d0&quot;&gt;Data Retrieving Service&lt;/font&gt;&lt;/b&gt;" style="rounded=0;whiteSpace=wrap;html=1;fontSize=14;fontColor=#FF9933;strokeColor=#8860D0;strokeWidth=3;fillColor=none;" parent="hQCJ3XEMx7iAnxMMSpY4-84" vertex="1">
          <mxGeometry x="20.32398753894081" y="24.857142857142858" width="287.53894080996884" height="48.214285714285715" as="geometry" />
        </mxCell>
        <mxCell id="zr4wXBdVAj4lqgL986UL-62" value="" style="rounded=0;whiteSpace=wrap;html=1;fontColor=#FF9933;strokeColor=#8860D0;strokeWidth=3;fillColor=none;" parent="21" vertex="1">
          <mxGeometry x="457" y="531" width="530" height="200" as="geometry" />
        </mxCell>
        <mxCell id="zr4wXBdVAj4lqgL986UL-63" value="&lt;font color=&quot;#8860d0&quot;&gt;Model Retraining Center&lt;/font&gt;" style="text;html=1;align=left;verticalAlign=middle;fontColor=#4277BB;shadow=0;dashed=0;strokeColor=none;fillColor=none;labelBackgroundColor=none;fontStyle=1;fontSize=14;spacingLeft=5;" parent="21" vertex="1">
          <mxGeometry x="457" y="533" width="185" height="20" as="geometry" />
        </mxCell>
        <mxCell id="fV0WlTHLcjonHDC1Q3u_-116" style="edgeStyle=orthogonalEdgeStyle;rounded=0;orthogonalLoop=1;jettySize=auto;html=1;fontSize=14;fontColor=#828B78;strokeWidth=2;strokeColor=#009900;" parent="21" source="fV0WlTHLcjonHDC1Q3u_-103" target="hQCJ3XEMx7iAnxMMSpY4-120" edge="1">
          <mxGeometry relative="1" as="geometry">
            <Array as="points">
              <mxPoint x="430" y="590" />
              <mxPoint x="430" y="510" />
              <mxPoint x="910" y="510" />
              <mxPoint x="910" y="363" />
            </Array>
          </mxGeometry>
        </mxCell>
        <mxCell id="fV0WlTHLcjonHDC1Q3u_-103" value="&lt;font color=&quot;#8860d0&quot; size=&quot;1&quot; style=&quot;&quot;&gt;&lt;b style=&quot;font-size: 14px;&quot;&gt;Model Register&lt;/b&gt;&lt;/font&gt;" style="rounded=0;whiteSpace=wrap;html=1;fontColor=#FF9933;strokeColor=#8860D0;strokeWidth=3;fillColor=none;" parent="21" vertex="1">
          <mxGeometry x="484" y="570" width="115.5" height="60" as="geometry" />
        </mxCell>
        <mxCell id="fV0WlTHLcjonHDC1Q3u_-118" style="edgeStyle=orthogonalEdgeStyle;rounded=0;orthogonalLoop=1;jettySize=auto;html=1;entryX=0.5;entryY=1;entryDx=0;entryDy=0;strokeWidth=2;fontSize=14;fontColor=#828B78;strokeColor=#009900;" parent="21" source="fV0WlTHLcjonHDC1Q3u_-106" target="fV0WlTHLcjonHDC1Q3u_-103" edge="1">
          <mxGeometry relative="1" as="geometry" />
        </mxCell>
        <mxCell id="fV0WlTHLcjonHDC1Q3u_-106" value="&lt;font color=&quot;#8860d0&quot; style=&quot;font-size: 14px;&quot;&gt;&lt;b style=&quot;&quot;&gt;Model&lt;br&gt;Evaluator&lt;/b&gt;&lt;/font&gt;" style="rounded=0;whiteSpace=wrap;html=1;fontColor=#FF9933;strokeColor=#8860D0;strokeWidth=3;fillColor=none;" parent="21" vertex="1">
          <mxGeometry x="484" y="650" width="115.5" height="60" as="geometry" />
        </mxCell>
        <mxCell id="LXXd0IAt2zDEmI8S4VGx-78" style="edgeStyle=orthogonalEdgeStyle;rounded=0;orthogonalLoop=1;jettySize=auto;html=1;entryX=0;entryY=0.5;entryDx=0;entryDy=0;fontSize=15;fontColor=#5680E9;startArrow=classicThin;startFill=0;strokeColor=#009900;strokeWidth=2;" parent="21" source="fV0WlTHLcjonHDC1Q3u_-112" target="LXXd0IAt2zDEmI8S4VGx-74" edge="1">
          <mxGeometry relative="1" as="geometry">
            <Array as="points">
              <mxPoint x="1030" y="600" />
              <mxPoint x="1030" y="320" />
            </Array>
          </mxGeometry>
        </mxCell>
        <mxCell id="boG0osdHmCgSMwE2R7i3-56" style="edgeStyle=orthogonalEdgeStyle;rounded=0;orthogonalLoop=1;jettySize=auto;html=1;entryX=0.75;entryY=0;entryDx=0;entryDy=0;strokeWidth=2;strokeColor=#009900;" parent="21" source="fV0WlTHLcjonHDC1Q3u_-112" target="hQCJ3XEMx7iAnxMMSpY4-76" edge="1">
          <mxGeometry relative="1" as="geometry">
            <Array as="points">
              <mxPoint x="930" y="20" />
              <mxPoint x="818" y="20" />
            </Array>
          </mxGeometry>
        </mxCell>
        <mxCell id="avvE24VgXAOQL3Vedgw2-48" style="edgeStyle=orthogonalEdgeStyle;rounded=0;orthogonalLoop=1;jettySize=auto;html=1;entryX=1;entryY=0.5;entryDx=0;entryDy=0;strokeColor=#009900;strokeWidth=2;" parent="21" source="fV0WlTHLcjonHDC1Q3u_-112" target="fV0WlTHLcjonHDC1Q3u_-113" edge="1">
          <mxGeometry relative="1" as="geometry" />
        </mxCell>
        <mxCell id="fV0WlTHLcjonHDC1Q3u_-112" value="&lt;font size=&quot;1&quot; color=&quot;#8860d0&quot;&gt;&lt;b style=&quot;font-size: 14px;&quot;&gt;Data Retrieval Parser&lt;/b&gt;&lt;/font&gt;" style="rounded=0;whiteSpace=wrap;html=1;fontColor=#FF9933;strokeColor=#8860D0;strokeWidth=3;fillColor=none;" parent="21" vertex="1">
          <mxGeometry x="850" y="570" width="115.5" height="60" as="geometry" />
        </mxCell>
        <mxCell id="fV0WlTHLcjonHDC1Q3u_-120" style="edgeStyle=orthogonalEdgeStyle;rounded=0;orthogonalLoop=1;jettySize=auto;html=1;strokeWidth=2;fontSize=14;fontColor=#828B78;strokeColor=#009900;" parent="21" source="fV0WlTHLcjonHDC1Q3u_-113" target="fV0WlTHLcjonHDC1Q3u_-114" edge="1">
          <mxGeometry relative="1" as="geometry" />
        </mxCell>
        <mxCell id="fV0WlTHLcjonHDC1Q3u_-113" value="&lt;font color=&quot;#8860d0&quot;&gt;&lt;span style=&quot;font-size: 14px;&quot;&gt;&lt;b&gt;Data Transformation Bundler&lt;/b&gt;&lt;/span&gt;&lt;/font&gt;" style="rounded=0;whiteSpace=wrap;html=1;fontColor=#FF9933;strokeColor=#8860D0;strokeWidth=3;fillColor=none;" parent="21" vertex="1">
          <mxGeometry x="667" y="570" width="115.5" height="60" as="geometry" />
        </mxCell>
        <mxCell id="fV0WlTHLcjonHDC1Q3u_-119" style="edgeStyle=orthogonalEdgeStyle;rounded=0;orthogonalLoop=1;jettySize=auto;html=1;strokeWidth=2;fontSize=14;fontColor=#828B78;strokeColor=#009900;" parent="21" source="fV0WlTHLcjonHDC1Q3u_-114" target="fV0WlTHLcjonHDC1Q3u_-106" edge="1">
          <mxGeometry relative="1" as="geometry" />
        </mxCell>
        <mxCell id="boG0osdHmCgSMwE2R7i3-61" style="edgeStyle=orthogonalEdgeStyle;rounded=0;orthogonalLoop=1;jettySize=auto;html=1;exitX=1;exitY=0.5;exitDx=0;exitDy=0;entryX=1;entryY=0;entryDx=0;entryDy=105.75;entryPerimeter=0;strokeWidth=2;strokeColor=#009900;startArrow=classic;startFill=1;" parent="21" source="fV0WlTHLcjonHDC1Q3u_-114" target="hQCJ3XEMx7iAnxMMSpY4-120" edge="1">
          <mxGeometry relative="1" as="geometry">
            <Array as="points">
              <mxPoint x="815" y="680" />
              <mxPoint x="815" y="550" />
              <mxPoint x="885" y="550" />
              <mxPoint x="885" y="394" />
            </Array>
          </mxGeometry>
        </mxCell>
        <mxCell id="fV0WlTHLcjonHDC1Q3u_-114" value="&lt;font color=&quot;#8860d0&quot; size=&quot;1&quot; style=&quot;&quot;&gt;&lt;b style=&quot;font-size: 14px;&quot;&gt;Model Trainer&lt;/b&gt;&lt;/font&gt;" style="rounded=0;whiteSpace=wrap;html=1;fontColor=#FF9933;strokeColor=#8860D0;strokeWidth=3;fillColor=none;" parent="21" vertex="1">
          <mxGeometry x="667" y="650" width="115.5" height="60" as="geometry" />
        </mxCell>
        <mxCell id="fV0WlTHLcjonHDC1Q3u_-121" style="edgeStyle=orthogonalEdgeStyle;rounded=0;orthogonalLoop=1;jettySize=auto;html=1;strokeWidth=2;fontSize=14;fontColor=#828B78;strokeColor=#009900;" parent="21" source="fV0WlTHLcjonHDC1Q3u_-115" target="fV0WlTHLcjonHDC1Q3u_-112" edge="1">
          <mxGeometry relative="1" as="geometry" />
        </mxCell>
        <mxCell id="fV0WlTHLcjonHDC1Q3u_-115" value="&lt;font color=&quot;#8860d0&quot; size=&quot;1&quot; style=&quot;&quot;&gt;&lt;b style=&quot;font-size: 14px;&quot;&gt;Scheduler&lt;/b&gt;&lt;/font&gt;" style="rounded=0;whiteSpace=wrap;html=1;fontColor=#FF9933;strokeColor=#8860D0;strokeWidth=3;fillColor=none;" parent="21" vertex="1">
          <mxGeometry x="850" y="650" width="115.5" height="60" as="geometry" />
        </mxCell>
        <mxCell id="LXXd0IAt2zDEmI8S4VGx-56" value="" style="sketch=0;pointerEvents=1;shadow=0;dashed=0;html=1;strokeColor=default;labelPosition=center;verticalLabelPosition=bottom;verticalAlign=top;outlineConnect=0;align=center;shape=mxgraph.office.security.key_permissions;fillColor=#0000FF;fontSize=12;fontColor=#E89B00;" parent="21" vertex="1">
          <mxGeometry x="948" y="38" width="20" height="40" as="geometry" />
        </mxCell>
        <mxCell id="LXXd0IAt2zDEmI8S4VGx-73" value="" style="group" parent="21" vertex="1" connectable="0">
          <mxGeometry x="1040.0007337526206" y="220.11" width="220" height="203.78622107969147" as="geometry" />
        </mxCell>
        <mxCell id="W-3xFo2ouSSGhJE2ZV1L-71" value="" style="group" parent="LXXd0IAt2zDEmI8S4VGx-73" vertex="1" connectable="0">
          <mxGeometry x="117" y="-2" width="190" height="200" as="geometry" />
        </mxCell>
        <mxCell id="hQCJ3XEMx7iAnxMMSpY4-78" value="" style="shape=cylinder3;whiteSpace=wrap;html=1;boundedLbl=1;backgroundOutline=1;size=15;fontColor=#FF9933;strokeColor=default;strokeWidth=3;fillColor=none;" parent="W-3xFo2ouSSGhJE2ZV1L-71" vertex="1">
          <mxGeometry x="45.25" width="144.75" height="200" as="geometry" />
        </mxCell>
        <mxCell id="LXXd0IAt2zDEmI8S4VGx-74" value="&lt;b style=&quot;&quot;&gt;&lt;font color=&quot;#000000&quot;&gt;FHIR Bulk Service&lt;/font&gt;&lt;/b&gt;" style="rounded=1;whiteSpace=wrap;html=1;fontSize=14;fontColor=#E89B00;strokeColor=#000000;fillColor=#FFFFFF;strokeWidth=3;" parent="W-3xFo2ouSSGhJE2ZV1L-71" vertex="1">
          <mxGeometry y="82.39" width="150" height="39" as="geometry" />
        </mxCell>
        <mxCell id="LXXd0IAt2zDEmI8S4VGx-75" value="&lt;font color=&quot;#000000&quot; size=&quot;1&quot;&gt;&lt;b style=&quot;font-size: 15px;&quot;&gt;FHIR Server&lt;/b&gt;&lt;/font&gt;" style="text;html=1;strokeColor=none;fillColor=none;align=center;verticalAlign=middle;whiteSpace=wrap;rounded=0;fontSize=14;fontColor=#E89B00;" parent="W-3xFo2ouSSGhJE2ZV1L-71" vertex="1">
          <mxGeometry x="70" y="40" width="100" height="31.79" as="geometry" />
        </mxCell>
        <mxCell id="LXXd0IAt2zDEmI8S4VGx-76" value="&lt;b&gt;&lt;font color=&quot;#000000&quot;&gt;FHIR Auth Service&lt;/font&gt;&lt;/b&gt;" style="rounded=1;whiteSpace=wrap;html=1;fontSize=14;fontColor=#E89B00;strokeColor=default;fillColor=#FFFFFF;strokeWidth=3;" parent="W-3xFo2ouSSGhJE2ZV1L-71" vertex="1">
          <mxGeometry y="132.79" width="150" height="39" as="geometry" />
        </mxCell>
        <mxCell id="W-3xFo2ouSSGhJE2ZV1L-52" style="edgeStyle=orthogonalEdgeStyle;rounded=0;orthogonalLoop=1;jettySize=auto;html=1;strokeColor=#000000;strokeWidth=2;" parent="21" source="hQCJ3XEMx7iAnxMMSpY4-86" edge="1">
          <mxGeometry relative="1" as="geometry">
            <Array as="points">
              <mxPoint x="760" y="220" />
              <mxPoint x="550" y="220" />
              <mxPoint x="550" y="340" />
            </Array>
            <mxPoint x="603" y="340" as="targetPoint" />
          </mxGeometry>
        </mxCell>
        <mxCell id="W-3xFo2ouSSGhJE2ZV1L-92" style="edgeStyle=orthogonalEdgeStyle;rounded=0;orthogonalLoop=1;jettySize=auto;html=1;exitX=1;exitY=0.5;exitDx=0;exitDy=0;strokeColor=#000000;strokeWidth=2;fontColor=#8860D0;startArrow=classic;startFill=1;endArrow=classic;endFill=1;" parent="21" source="W-3xFo2ouSSGhJE2ZV1L-83" target="hQCJ3XEMx7iAnxMMSpY4-78" edge="1">
          <mxGeometry relative="1" as="geometry" />
        </mxCell>
        <mxCell id="W-3xFo2ouSSGhJE2ZV1L-83" value="" style="rounded=0;whiteSpace=wrap;html=1;fillColor=none;strokeWidth=3;strokeColor=#000000;dashed=1;" parent="21" vertex="1">
          <mxGeometry x="1040" y="41" width="130" height="159" as="geometry" />
        </mxCell>
        <mxCell id="W-3xFo2ouSSGhJE2ZV1L-87" value="&lt;div style=&quot;&quot;&gt;&lt;b style=&quot;background-color: initial; font-size: 14px;&quot;&gt;Open FHIR&lt;/b&gt;&lt;/div&gt;&lt;font size=&quot;1&quot;&gt;&lt;div style=&quot;&quot;&gt;&lt;b style=&quot;background-color: initial; font-size: 14px;&quot;&gt;Endpoint&lt;/b&gt;&lt;/div&gt;&lt;/font&gt;" style="rounded=0;whiteSpace=wrap;html=1;fillColor=default;strokeWidth=3;strokeColor=#000000;align=center;" parent="21" vertex="1">
          <mxGeometry x="1050.3899999999999" y="127" width="109.22" height="50" as="geometry" />
        </mxCell>
        <mxCell id="W-3xFo2ouSSGhJE2ZV1L-88" value="&lt;div style=&quot;text-align: center;&quot;&gt;&lt;b style=&quot;background-color: initial; font-size: 14px;&quot;&gt;&lt;font color=&quot;#0000ff&quot;&gt;Protected FHIR Endpoint&lt;/font&gt;&lt;/b&gt;&lt;/div&gt;" style="rounded=0;whiteSpace=wrap;html=1;fillColor=default;strokeWidth=3;strokeColor=#0000FF;align=left;" parent="21" vertex="1">
          <mxGeometry x="1051" y="57" width="109.22" height="50" as="geometry" />
        </mxCell>
        <mxCell id="HMDqZmz3uBP7oXw96FqN-48" style="edgeStyle=orthogonalEdgeStyle;orthogonalLoop=1;jettySize=auto;html=1;entryX=0;entryY=0.5;entryDx=0;entryDy=0;strokeColor=#0000FF;startArrow=classic;startFill=1;strokeWidth=2;rounded=0;" parent="21" source="hQCJ3XEMx7iAnxMMSpY4-118" target="W-3xFo2ouSSGhJE2ZV1L-88" edge="1">
          <mxGeometry relative="1" as="geometry">
            <Array as="points">
              <mxPoint x="930" y="82" />
              <mxPoint x="930" y="82" />
            </Array>
          </mxGeometry>
        </mxCell>
        <mxCell id="HMDqZmz3uBP7oXw96FqN-49" style="edgeStyle=orthogonalEdgeStyle;rounded=0;orthogonalLoop=1;jettySize=auto;html=1;entryX=0;entryY=0.5;entryDx=0;entryDy=0;strokeWidth=2;strokeColor=#000000;startArrow=classic;startFill=1;" parent="21" source="hQCJ3XEMx7iAnxMMSpY4-118" target="W-3xFo2ouSSGhJE2ZV1L-87" edge="1">
          <mxGeometry relative="1" as="geometry">
            <Array as="points">
              <mxPoint x="966" y="100" />
              <mxPoint x="966" y="152" />
            </Array>
          </mxGeometry>
        </mxCell>
        <mxCell id="HMDqZmz3uBP7oXw96FqN-52" value="" style="pointerEvents=1;shadow=0;dashed=1;html=1;strokeColor=default;labelPosition=center;verticalLabelPosition=bottom;verticalAlign=top;outlineConnect=0;align=center;shape=mxgraph.office.security.key_permissions;fillColor=#0000FF;fontSize=12;fontColor=#E89B00;gradientColor=none;fillStyle=auto;strokeWidth=2;perimeterSpacing=0;" parent="21" vertex="1">
          <mxGeometry x="170" y="76" width="20" height="40" as="geometry" />
        </mxCell>
        <mxCell id="W-3xFo2ouSSGhJE2ZV1L-120" style="edgeStyle=orthogonalEdgeStyle;rounded=0;orthogonalLoop=1;jettySize=auto;html=1;strokeColor=#FF0000;strokeWidth=2;fontColor=#8860D0;startArrow=classic;startFill=1;endArrow=classic;endFill=1;" parent="21" edge="1">
          <mxGeometry relative="1" as="geometry">
            <mxPoint x="130.41999999999996" y="335.9999999999999" as="sourcePoint" />
            <mxPoint x="252.85139318885444" y="335.9999999999999" as="targetPoint" />
            <Array as="points">
              <mxPoint x="190" y="336" />
              <mxPoint x="190" y="336" />
            </Array>
          </mxGeometry>
        </mxCell>
        <mxCell id="boG0osdHmCgSMwE2R7i3-59" style="edgeStyle=orthogonalEdgeStyle;rounded=0;orthogonalLoop=1;jettySize=auto;html=1;strokeWidth=2;strokeColor=#009900;" parent="21" source="hQCJ3XEMx7iAnxMMSpY4-76" target="fV0WlTHLcjonHDC1Q3u_-112" edge="1">
          <mxGeometry relative="1" as="geometry">
            <Array as="points">
              <mxPoint x="820" y="230" />
              <mxPoint x="930" y="230" />
            </Array>
          </mxGeometry>
        </mxCell>
        <mxCell id="boG0osdHmCgSMwE2R7i3-60" style="edgeStyle=orthogonalEdgeStyle;rounded=0;orthogonalLoop=1;jettySize=auto;html=1;strokeColor=#009900;strokeWidth=2;startArrow=classic;startFill=1;" parent="21" source="hQCJ3XEMx7iAnxMMSpY4-119" target="fV0WlTHLcjonHDC1Q3u_-113" edge="1">
          <mxGeometry relative="1" as="geometry" />
        </mxCell>
        <mxCell id="fV0WlTHLcjonHDC1Q3u_-124" value="" style="endArrow=classic;html=1;rounded=0;strokeWidth=2;fontSize=14;fontColor=#828B78;entryX=0.5;entryY=1;entryDx=0;entryDy=0;exitX=0.5;exitY=0;exitDx=0;exitDy=0;strokeColor=#009900;" parent="1" source="fV0WlTHLcjonHDC1Q3u_-125" target="fV0WlTHLcjonHDC1Q3u_-115" edge="1">
          <mxGeometry width="50" height="50" relative="1" as="geometry">
            <mxPoint x="38" y="1051" as="sourcePoint" />
            <mxPoint x="70" y="1021" as="targetPoint" />
          </mxGeometry>
        </mxCell>
        <mxCell id="fV0WlTHLcjonHDC1Q3u_-125" value="&lt;font color=&quot;#000000&quot; style=&quot;font-size: 15px;&quot;&gt;&lt;b style=&quot;&quot;&gt;Set retrain timing, training configuration&lt;/b&gt;&lt;/font&gt;" style="text;html=1;strokeColor=none;fillColor=none;align=center;verticalAlign=middle;whiteSpace=wrap;rounded=0;strokeWidth=3;fontSize=14;fontColor=#828B78;" parent="1" vertex="1">
          <mxGeometry x="-47.25" y="962" width="170" height="40" as="geometry" />
        </mxCell>
        <mxCell id="W-3xFo2ouSSGhJE2ZV1L-59" style="edgeStyle=orthogonalEdgeStyle;rounded=0;orthogonalLoop=1;jettySize=auto;html=1;strokeColor=#0000FF;strokeWidth=2;fontColor=#8860D0;startArrow=classic;startFill=1;" parent="1" source="W-3xFo2ouSSGhJE2ZV1L-57" target="LXXd0IAt2zDEmI8S4VGx-76" edge="1">
          <mxGeometry relative="1" as="geometry">
            <mxPoint x="-525" y="550" as="sourcePoint" />
            <Array as="points">
              <mxPoint x="-532" y="920" />
              <mxPoint x="180" y="920" />
              <mxPoint x="180" y="540" />
            </Array>
          </mxGeometry>
        </mxCell>
        <mxCell id="W-3xFo2ouSSGhJE2ZV1L-102" style="edgeStyle=orthogonalEdgeStyle;rounded=0;orthogonalLoop=1;jettySize=auto;html=1;strokeColor=#000000;strokeWidth=2;fontColor=#00994D;startArrow=none;startFill=0;endArrow=classic;endFill=1;" parent="1" target="LXXd0IAt2zDEmI8S4VGx-61" edge="1">
          <mxGeometry relative="1" as="geometry">
            <Array as="points">
              <mxPoint x="-390" y="570" />
              <mxPoint x="-390" y="395" />
            </Array>
            <mxPoint x="-267" y="570" as="sourcePoint" />
          </mxGeometry>
        </mxCell>
        <mxCell id="W-3xFo2ouSSGhJE2ZV1L-105" style="edgeStyle=orthogonalEdgeStyle;rounded=0;orthogonalLoop=1;jettySize=auto;html=1;strokeColor=#000000;strokeWidth=2;fontColor=#8860D0;startArrow=classic;startFill=1;endArrow=classic;endFill=1;" parent="1" edge="1">
          <mxGeometry relative="1" as="geometry">
            <Array as="points">
              <mxPoint x="-690" y="291" />
              <mxPoint x="-690" y="291" />
            </Array>
            <mxPoint x="-739.58" y="291.0000000000001" as="sourcePoint" />
            <mxPoint x="-617.1486068111456" y="291.0000000000001" as="targetPoint" />
          </mxGeometry>
        </mxCell>
        <mxCell id="W-3xFo2ouSSGhJE2ZV1L-106" style="edgeStyle=orthogonalEdgeStyle;rounded=0;orthogonalLoop=1;jettySize=auto;html=1;strokeColor=#000000;strokeWidth=2;fontColor=#8860D0;startArrow=classic;startFill=1;endArrow=classic;endFill=1;" parent="1" source="hQCJ3XEMx7iAnxMMSpY4-54" target="LXXd0IAt2zDEmI8S4VGx-61" edge="1">
          <mxGeometry relative="1" as="geometry">
            <Array as="points">
              <mxPoint x="-690" y="310" />
              <mxPoint x="-690" y="370" />
            </Array>
            <mxPoint x="-625" y="390" as="targetPoint" />
          </mxGeometry>
        </mxCell>
        <mxCell id="W-3xFo2ouSSGhJE2ZV1L-107" style="edgeStyle=orthogonalEdgeStyle;rounded=0;orthogonalLoop=1;jettySize=auto;html=1;strokeColor=#000000;strokeWidth=2;fontColor=#8860D0;startArrow=none;startFill=0;endArrow=classic;endFill=1;" parent="1" target="zr4wXBdVAj4lqgL986UL-52" edge="1">
          <mxGeometry relative="1" as="geometry">
            <mxPoint x="-775" y="360" as="sourcePoint" />
            <Array as="points">
              <mxPoint x="-775" y="440" />
              <mxPoint x="-530" y="440" />
            </Array>
          </mxGeometry>
        </mxCell>
        <mxCell id="W-3xFo2ouSSGhJE2ZV1L-109" style="edgeStyle=orthogonalEdgeStyle;rounded=0;orthogonalLoop=1;jettySize=auto;html=1;strokeColor=#FF0000;strokeWidth=2;fontColor=#8860D0;startArrow=classic;startFill=1;endArrow=classic;endFill=1;" parent="1" source="LXXd0IAt2zDEmI8S4VGx-61" target="hQCJ3XEMx7iAnxMMSpY4-119" edge="1">
          <mxGeometry relative="1" as="geometry">
            <Array as="points">
              <mxPoint x="-360" y="380" />
              <mxPoint x="-360" y="520" />
            </Array>
            <mxPoint x="-510" y="390" as="sourcePoint" />
          </mxGeometry>
        </mxCell>
        <mxCell id="W-3xFo2ouSSGhJE2ZV1L-114" style="edgeStyle=orthogonalEdgeStyle;rounded=0;orthogonalLoop=1;jettySize=auto;html=1;strokeColor=#000000;strokeWidth=2;fontColor=#00994D;startArrow=none;startFill=0;endArrow=classic;endFill=1;" parent="1" target="LXXd0IAt2zDEmI8S4VGx-48" edge="1">
          <mxGeometry relative="1" as="geometry">
            <mxPoint x="-270" y="570" as="sourcePoint" />
            <mxPoint x="-509.89283162657784" y="430.0588235294117" as="targetPoint" />
            <Array as="points">
              <mxPoint x="-390" y="570" />
              <mxPoint x="-390" y="320" />
            </Array>
          </mxGeometry>
        </mxCell>
        <mxCell id="W-3xFo2ouSSGhJE2ZV1L-119" style="edgeStyle=orthogonalEdgeStyle;rounded=0;orthogonalLoop=1;jettySize=auto;html=1;strokeColor=#000000;strokeWidth=2;fontColor=#00994D;startArrow=none;startFill=0;endArrow=classic;endFill=1;" parent="1" target="zr4wXBdVAj4lqgL986UL-52" edge="1">
          <mxGeometry relative="1" as="geometry">
            <mxPoint x="-267" y="570" as="sourcePoint" />
            <mxPoint x="-508.90211955227437" y="350" as="targetPoint" />
            <Array as="points">
              <mxPoint x="-390" y="570" />
              <mxPoint x="-390" y="530" />
            </Array>
          </mxGeometry>
        </mxCell>
        <mxCell id="W-3xFo2ouSSGhJE2ZV1L-122" style="edgeStyle=orthogonalEdgeStyle;rounded=0;orthogonalLoop=1;jettySize=auto;html=1;strokeColor=#FF0000;strokeWidth=2;fontColor=#8860D0;startArrow=classic;startFill=1;endArrow=classic;endFill=1;" parent="1" source="hQCJ3XEMx7iAnxMMSpY4-54" target="LXXd0IAt2zDEmI8S4VGx-61" edge="1">
          <mxGeometry relative="1" as="geometry">
            <Array as="points">
              <mxPoint x="-700" y="320" />
              <mxPoint x="-700" y="385" />
            </Array>
          </mxGeometry>
        </mxCell>
        <mxCell id="HMDqZmz3uBP7oXw96FqN-50" style="edgeStyle=orthogonalEdgeStyle;rounded=0;orthogonalLoop=1;jettySize=auto;html=1;entryX=0;entryY=0.5;entryDx=0;entryDy=0;strokeColor=#000000;strokeWidth=2;startArrow=none;startFill=0;" parent="1" source="LXXd0IAt2zDEmI8S4VGx-48" target="hQCJ3XEMx7iAnxMMSpY4-118" edge="1">
          <mxGeometry relative="1" as="geometry">
            <Array as="points">
              <mxPoint x="-380" y="290" />
              <mxPoint x="-380" y="259" />
            </Array>
          </mxGeometry>
        </mxCell>
        <mxCell id="HMDqZmz3uBP7oXw96FqN-51" style="edgeStyle=orthogonalEdgeStyle;rounded=0;orthogonalLoop=1;jettySize=auto;html=1;strokeColor=#000000;strokeWidth=2;startArrow=none;startFill=0;" parent="1" source="LXXd0IAt2zDEmI8S4VGx-61" target="hQCJ3XEMx7iAnxMMSpY4-118" edge="1">
          <mxGeometry relative="1" as="geometry">
            <Array as="points">
              <mxPoint x="-380" y="370" />
              <mxPoint x="-380" y="259" />
            </Array>
          </mxGeometry>
        </mxCell>
        <mxCell id="hQCJ3XEMx7iAnxMMSpY4-145" style="edgeStyle=orthogonalEdgeStyle;rounded=0;orthogonalLoop=1;jettySize=auto;html=1;fontSize=13;fontColor=#000000;startArrow=none;startFill=0;strokeWidth=2;strokeColor=#E89B00;" parent="1" source="hQCJ3XEMx7iAnxMMSpY4-86" target="zr4wXBdVAj4lqgL986UL-52" edge="1">
          <mxGeometry relative="1" as="geometry">
            <Array as="points">
              <mxPoint x="-132" y="380" />
              <mxPoint x="-330" y="380" />
              <mxPoint x="-330" y="505" />
            </Array>
            <mxPoint x="-500" y="530" as="targetPoint" />
          </mxGeometry>
        </mxCell>
        <mxCell id="W-3xFo2ouSSGhJE2ZV1L-118" style="edgeStyle=orthogonalEdgeStyle;rounded=0;orthogonalLoop=1;jettySize=auto;html=1;strokeColor=#FF0000;strokeWidth=2;fontColor=#8860D0;startArrow=classic;startFill=1;endArrow=classic;endFill=1;" parent="1" source="zr4wXBdVAj4lqgL986UL-52" target="hQCJ3XEMx7iAnxMMSpY4-119" edge="1">
          <mxGeometry relative="1" as="geometry">
            <mxPoint x="-510" y="545.1612903225807" as="sourcePoint" />
            <mxPoint x="-266.89" y="524.4670967741936" as="targetPoint" />
            <Array as="points">
              <mxPoint x="-410" y="520" />
              <mxPoint x="-410" y="520" />
            </Array>
          </mxGeometry>
        </mxCell>
        <mxCell id="HMDqZmz3uBP7oXw96FqN-57" style="edgeStyle=orthogonalEdgeStyle;rounded=0;orthogonalLoop=1;jettySize=auto;html=1;strokeColor=#E89B00;strokeWidth=2;fontColor=#000000;startArrow=none;startFill=0;" parent="1" source="zr4wXBdVAj4lqgL986UL-52" target="hQCJ3XEMx7iAnxMMSpY4-118" edge="1">
          <mxGeometry relative="1" as="geometry">
            <Array as="points">
              <mxPoint x="-370" y="492" />
              <mxPoint x="-370" y="270" />
            </Array>
          </mxGeometry>
        </mxCell>
        <mxCell id="HMDqZmz3uBP7oXw96FqN-54" style="edgeStyle=orthogonalEdgeStyle;rounded=0;orthogonalLoop=1;jettySize=auto;html=1;strokeColor=#000000;strokeWidth=2;startArrow=none;startFill=0;" parent="1" source="zr4wXBdVAj4lqgL986UL-52" target="hQCJ3XEMx7iAnxMMSpY4-118" edge="1">
          <mxGeometry relative="1" as="geometry">
            <Array as="points">
              <mxPoint x="-380" y="490" />
              <mxPoint x="-380" y="259" />
            </Array>
          </mxGeometry>
        </mxCell>
        <mxCell id="W-3xFo2ouSSGhJE2ZV1L-108" style="edgeStyle=orthogonalEdgeStyle;rounded=0;orthogonalLoop=1;jettySize=auto;html=1;strokeColor=#000000;strokeWidth=2;fontColor=#8860D0;startArrow=classic;startFill=1;endArrow=classic;endFill=1;" parent="1" edge="1">
          <mxGeometry relative="1" as="geometry">
            <mxPoint x="-739.5799999999999" y="492" as="sourcePoint" />
            <mxPoint x="-617.1486068111456" y="492" as="targetPoint" />
            <Array as="points">
              <mxPoint x="-720" y="492" />
              <mxPoint x="-720" y="492" />
            </Array>
          </mxGeometry>
        </mxCell>
        <mxCell id="LXXd0IAt2zDEmI8S4VGx-54" value="" style="sketch=0;pointerEvents=1;shadow=0;dashed=0;html=1;strokeColor=default;labelPosition=center;verticalLabelPosition=bottom;verticalAlign=top;outlineConnect=0;align=center;shape=mxgraph.office.security.key_permissions;fillColor=#0000FF;fontSize=12;fontColor=#E89B00;" parent="1" vertex="1">
          <mxGeometry x="-522.15" y="587.9" width="20" height="40" as="geometry" />
        </mxCell>
        <mxCell id="XlW1QV5YciZraQFTKrNv-48" value="" style="group" vertex="1" connectable="0" parent="1">
          <mxGeometry x="-635" y="210" width="151" height="360" as="geometry" />
        </mxCell>
        <mxCell id="hQCJ3XEMx7iAnxMMSpY4-55" value="" style="rounded=0;whiteSpace=wrap;html=1;fillColor=none;strokeWidth=3;strokeColor=#8860D0;dashed=1;fontColor=#8860D0;" parent="XlW1QV5YciZraQFTKrNv-48" vertex="1">
          <mxGeometry width="151" height="360" as="geometry" />
        </mxCell>
        <mxCell id="hQCJ3XEMx7iAnxMMSpY4-56" value="&lt;font&gt;Endpoints&lt;/font&gt;" style="text;html=1;align=left;verticalAlign=middle;fontColor=#8860D0;shadow=0;dashed=0;strokeColor=none;fillColor=none;labelBackgroundColor=none;fontStyle=1;fontSize=14;spacingLeft=5;" parent="XlW1QV5YciZraQFTKrNv-48" vertex="1">
          <mxGeometry x="6.851393188854445" y="2.4818548387096655" width="102.21862348178138" height="25.073313782991203" as="geometry" />
        </mxCell>
        <mxCell id="LXXd0IAt2zDEmI8S4VGx-61" value="&lt;font size=&quot;1&quot;&gt;&lt;b style=&quot;font-size: 15px;&quot;&gt;&amp;nbsp;Regular&lt;/b&gt;&lt;/font&gt;" style="rounded=0;whiteSpace=wrap;html=1;fillColor=none;strokeWidth=3;strokeColor=#8860D0;align=left;fontColor=#8860D0;" parent="XlW1QV5YciZraQFTKrNv-48" vertex="1">
          <mxGeometry x="17.799999999999955" y="142.15909090909093" width="115" height="65" as="geometry" />
        </mxCell>
        <mxCell id="zr4wXBdVAj4lqgL986UL-52" value="&lt;b&gt;&lt;font style=&quot;font-size: 14px;&quot;&gt;&amp;nbsp;SMART&lt;/font&gt;&lt;/b&gt;" style="rounded=0;whiteSpace=wrap;html=1;fillColor=none;strokeWidth=3;strokeColor=#8860D0;align=left;fontColor=#8860D0;" parent="XlW1QV5YciZraQFTKrNv-48" vertex="1">
          <mxGeometry x="17.851393188854445" y="265.7059824046922" width="115" height="65" as="geometry" />
        </mxCell>
        <mxCell id="W-3xFo2ouSSGhJE2ZV1L-57" value="&lt;div style=&quot;&quot;&gt;&lt;b style=&quot;background-color: initial;&quot;&gt;Auth&lt;/b&gt;&lt;/div&gt;&lt;font style=&quot;font-size: 12px;&quot;&gt;&lt;div style=&quot;&quot;&gt;&lt;b style=&quot;background-color: initial;&quot;&gt;Handler&lt;/b&gt;&lt;/div&gt;&lt;/font&gt;" style="rounded=0;whiteSpace=wrap;html=1;fillColor=none;strokeWidth=3;strokeColor=#8860D0;align=center;fontColor=#8860D0;" parent="XlW1QV5YciZraQFTKrNv-48" vertex="1">
          <mxGeometry x="77.99538699690402" y="275.4218914956013" width="50.60824005715646" height="46.02272727272728" as="geometry" />
        </mxCell>
        <mxCell id="HMDqZmz3uBP7oXw96FqN-58" value="" style="group" parent="XlW1QV5YciZraQFTKrNv-48" vertex="1" connectable="0">
          <mxGeometry x="17.851393188854445" y="50.113636363636374" width="115" height="65" as="geometry" />
        </mxCell>
        <mxCell id="LXXd0IAt2zDEmI8S4VGx-48" value="&lt;font size=&quot;1&quot;&gt;&lt;b style=&quot;font-size: 13px;&quot;&gt;&amp;nbsp;CDS &lt;br&gt;&lt;div style=&quot;&quot;&gt;&lt;b style=&quot;background-color: initial;&quot;&gt;&amp;nbsp;Hooks&lt;/b&gt;&lt;/div&gt;&lt;/b&gt;&lt;/font&gt;" style="rounded=0;whiteSpace=wrap;html=1;fillColor=none;strokeWidth=3;strokeColor=#8860D0;horizontal=1;verticalAlign=middle;align=left;fontColor=#8860D0;" parent="HMDqZmz3uBP7oXw96FqN-58" vertex="1">
          <mxGeometry width="114.75403992395441" height="64.5486111111111" as="geometry" />
        </mxCell>
        <mxCell id="4Ux0fdp1j3CcwyzQmMRx-48" value="&lt;div style=&quot;&quot;&gt;&lt;b style=&quot;background-color: initial;&quot;&gt;Hook&lt;/b&gt;&lt;/div&gt;&lt;font style=&quot;font-size: 12px;&quot;&gt;&lt;div style=&quot;&quot;&gt;&lt;b style=&quot;background-color: initial;&quot;&gt;Handler&lt;/b&gt;&lt;/div&gt;&lt;/font&gt;" style="rounded=0;whiteSpace=wrap;html=1;fillColor=none;strokeWidth=3;strokeColor=#8860D0;align=center;fontColor=#8860D0;" parent="HMDqZmz3uBP7oXw96FqN-58" vertex="1">
          <mxGeometry x="58.50000000000002" y="11.171874999999998" width="50.50000000000001" height="45.703125" as="geometry" />
        </mxCell>
      </root>
    </mxGraphModel>
  </diagram>
</mxfile>